<mxfile host="app.diagrams.net" modified="2023-04-23T11:45:05.583Z" agent="Mozilla/5.0 (Macintosh; Intel Mac OS X 10_15_7) AppleWebKit/537.36 (KHTML, like Gecko) Chrome/112.0.0.0 Safari/537.36" version="21.2.1" etag="fxCyLydwa6mbB898iJcD" type="github">
  <diagram name="第 1 页" id="WtROMLN0NU0sXgRK7wQb">
    <mxGraphModel>
      <root>
        <mxCell id="0" />
        <mxCell id="1" parent="0" />
      </root>
    </mxGraphModel>
  </diagram>
</mxfile>
